<svg width="161" height="43" viewBox="0 0 161 43" fill="none" xmlns="http://www.w3.org/2000/svg">
  <path d="M0.9 0.719999H15.78C21.94 0.719999 26.7 1.92 30.06 4.32C33.46 6.72 35.16 10.08 35.16 14.4C35.16 17.12 34.32 19.5 32.64 21.54C31 23.58 28.74 25.16 25.86 26.28C23.02 27.36 19.86 27.9 16.38 27.9H13.86V42H0.9V0.719999ZM16.44 19.56C18.56 19.56 20.2 19.12 21.36 18.24C22.52 17.36 23.1 16.08 23.1 14.4C23.1 12.72 22.52 11.46 21.36 10.62C20.24 9.78 18.6 9.36 16.44 9.36H13.86V19.44C14.66 19.52 15.52 19.56 16.44 19.56ZM53.9775 42.48C50.6575 42.48 47.6975 41.82 45.0975 40.5C42.5375 39.14 40.5375 37.3 39.0975 34.98C37.6575 32.62 36.9375 29.96 36.9375 27C36.9375 23.96 37.6775 21.26 39.1575 18.9C40.6375 16.54 42.6375 14.72 45.1575 13.44C47.6775 12.16 50.4775 11.52 53.5575 11.52C56.5175 11.52 59.0375 12.18 61.1175 13.5C63.2375 14.78 64.8175 16.54 65.8575 18.78C66.8975 20.98 67.4175 23.46 67.4175 26.22C67.4175 26.94 67.3775 27.46 67.2975 27.78L49.2975 30.12C49.7775 31.52 50.5575 32.54 51.6375 33.18C52.7175 33.78 54.1375 34.08 55.8975 34.08C58.6175 34.08 61.5575 33.38 64.7175 31.98L66.2175 40.02C62.4975 41.66 58.4175 42.48 53.9775 42.48ZM58.1175 22.56C57.4775 20.04 55.9575 18.78 53.5575 18.78C52.1175 18.78 50.9775 19.32 50.1375 20.4C49.2975 21.48 48.8575 22.88 48.8175 24.6L58.1175 22.56ZM84.9173 42.48C81.3973 42.48 78.6573 41.48 76.6973 39.48C74.7373 37.44 73.7573 34.64 73.7573 31.08V19.38H69.9173V11.94H74.6573L80.2373 0.599997H86.2973V11.94H93.2573V19.38H86.2973V29.58C86.2973 30.58 86.6173 31.36 87.2573 31.92C87.8973 32.48 88.7973 32.76 89.9573 32.76C91.0373 32.76 92.0173 32.52 92.8973 32.04L93.3773 40.44C92.3773 41.04 91.0773 41.54 89.4773 41.94C87.9173 42.3 86.3973 42.48 84.9173 42.48Z" fill="#474747"/>
  <path d="M98.7516 0.719999H112.612V42H98.7516V0.719999ZM120.431 0.719999H138.371C142.691 0.719999 146.511 1.58 149.831 3.3C153.191 5.02 155.791 7.42 157.631 10.5C159.511 13.58 160.451 17.1 160.451 21.06C160.451 25.22 159.531 28.88 157.691 32.04C155.891 35.2 153.311 37.66 149.951 39.42C146.631 41.14 142.771 42 138.371 42H120.431V0.719999ZM137.771 31.2C140.771 31.2 143.051 30.26 144.611 28.38C146.211 26.46 147.011 23.98 147.011 20.94C147.011 18.06 146.231 15.78 144.671 14.1C143.151 12.38 140.851 11.52 137.771 11.52H133.691V31.2H137.771Z" fill="#FBBC05"/>
  </svg>
  